# Blender v2.82 (sub 7) OBJ File: ''
# www.blender.org
mtllib propaneCollider.mtl
o Propane_LOD3
v 4.367622 12.594939 -6.011511
v 7.066963 12.594938 -2.296192
v 7.066963 0.000000 -2.296194
v 4.367622 0.000001 -6.011513
v 0.000000 12.594939 -7.430639
v 0.000000 0.000001 -7.430641
v -4.367622 12.594939 -6.011511
v -4.367619 0.000001 -6.011513
v -7.066956 12.594938 -2.296192
v -7.066956 0.000000 -2.296194
v -7.066956 12.594938 2.296196
v -7.066956 -0.000000 2.296194
v -4.367619 12.594937 6.011515
v -4.367619 -0.000001 6.011513
v 0.000000 12.594937 7.430636
v 0.000000 -0.000001 7.430634
v 4.367619 12.594937 6.011515
v 4.367619 -0.000001 6.011513
v 7.066956 12.594938 2.296194
v 7.066956 -0.000000 2.296192
v 0.547195 31.987358 -1.684087
v 1.770760 31.987358 0.000004
v 4.912750 29.421551 0.000004
v 1.894989 29.421551 -4.784053
v -1.432576 31.987358 -1.040821
v -3.864609 29.421551 -2.553927
v -1.432576 31.987358 1.040829
v -3.993491 29.421551 3.462445
v 0.547193 31.987358 1.684094
v 1.940251 29.421551 4.561540
v -7.066956 25.318796 2.296198
v -4.367619 25.318794 6.011518
v -7.066956 25.318796 -2.296190
v -4.367619 25.318798 -6.011509
v 0.000000 25.318798 -7.430637
v 4.367622 25.318798 -6.011509
v 7.066963 25.318796 -2.296190
v 7.066956 25.318796 2.296196
v 4.367619 25.318794 6.011518
v 0.000000 25.318794 7.430638
v -4.367619 21.580090 6.011517
v -7.066956 21.580091 2.296198
v -7.066956 21.580091 -2.296191
v -4.367622 21.580093 -6.011510
v 0.000000 21.580093 -7.430638
v 4.367622 21.580093 -6.011510
v 7.066963 21.580091 -2.296191
v 7.066956 21.580091 2.296196
v 4.367619 21.580090 6.011517
v 0.000000 21.580090 7.430637
vt 0.400690 0.278350
vt 0.302738 0.278350
vt 0.302738 0.011718
vt 0.400690 0.011718
vt 0.498584 0.278350
vt 0.498584 0.011718
vt 0.596435 0.278350
vt 0.596435 0.011718
vt 0.694212 0.278350
vt 0.694212 0.011718
vt 0.791870 0.278350
vt 0.791870 0.011718
vt 0.889522 0.278350
vt 0.889522 0.011718
vt 0.987426 0.278350
vt 0.987426 0.011718
vt 0.107519 0.278350
vt 0.009624 0.278350
vt 0.009624 0.011718
vt 0.107519 0.011718
vt 0.205157 0.278350
vt 0.205157 0.011718
vt 0.152659 0.951501
vt 0.106980 0.955898
vt 0.098579 0.901981
vt 0.151311 0.896830
vt 0.198581 0.952993
vt 0.203638 0.899324
vt 0.244255 0.960044
vt 0.254693 0.906693
vt 0.278354 0.968437
vt 0.292386 0.914953
vt 0.061335 0.966137
vt 0.047974 0.912783
vt 0.575514 0.958270
vt 0.575514 0.919790
vt 0.612111 0.907899
vt 0.634729 0.939030
vt 0.612111 0.970161
vt 0.286560 0.604526
vt 0.141162 0.707968
vt 0.101139 0.616818
vt 0.207312 0.778130
vt 0.327021 0.648206
vt 0.291641 0.819448
vt 0.382115 0.828839
vt 0.387762 0.656942
vt 0.469414 0.808365
vt 0.544309 0.759492
vt 0.437578 0.627077
vt 0.598589 0.686254
vt 0.626551 0.596806
vt 0.449340 0.576687
vt 0.630786 0.493221
vt 0.085133 0.510159
vt 0.286121 0.564357
vt 0.687635 0.707004
vt 0.771315 0.646134
vt 0.874784 0.646153
vt 0.958476 0.706995
vt 0.990435 0.805407
vt 0.958473 0.903818
vt 0.874776 0.964657
vt 0.771306 0.964662
vt 0.687599 0.903844
vt 0.655673 0.805415
vt 0.892012 0.482692
vt 0.794316 0.482755
vt 0.794194 0.293964
vt 0.891890 0.293900
vt 0.696620 0.482818
vt 0.696499 0.294027
vt 0.598925 0.482881
vt 0.598803 0.294089
vt 0.501229 0.482944
vt 0.501108 0.294152
vt 0.403533 0.483006
vt 0.403412 0.294215
vt 0.305838 0.483069
vt 0.305717 0.294277
vt 0.208142 0.483131
vt 0.208021 0.294340
vt 0.110446 0.483194
vt 0.110326 0.294402
vt 0.012750 0.483256
vt 0.012630 0.294464
vt 0.989707 0.482629
vt 0.989585 0.293837
vt 0.089401 0.742877
vt 0.039622 0.635397
vt 0.171504 0.827544
vt 0.275810 0.876967
vt 0.386287 0.887230
vt 0.492191 0.860816
vt 0.583482 0.801823
vt 0.651224 0.714307
vt 0.686751 0.608229
vt 0.696159 0.496155
vt 0.017833 0.521299
vn 0.5878 0.0000 -0.8090
vn 0.9511 0.0000 -0.3090
vn -0.0000 0.0000 -1.0000
vn -0.5878 0.0000 -0.8090
vn -0.9511 0.0000 -0.3090
vn -0.9511 -0.0000 0.3090
vn -0.5878 -0.0000 0.8090
vn 0.0000 -0.0000 1.0000
vn 0.5878 -0.0000 0.8090
vn 0.9511 -0.0000 0.3090
vn 0.1609 0.7825 -0.6015
vn 0.6199 0.7847 0.0052
vn 0.6199 0.7847 0.0033
vn 0.2053 0.7851 -0.5843
vn -0.5283 0.7520 -0.3942
vn -0.5425 0.7526 -0.3731
vn -0.4978 0.7933 0.3505
vn -0.4662 0.7949 0.3882
vn 0.2124 0.7862 0.5803
vn 0.2424 0.7862 0.5685
vn 0.0000 1.0000 0.0000
vn -0.6041 0.6197 0.5011
vn -0.9187 0.3082 0.2471
vn -0.5230 0.2965 0.7991
vn -0.9104 0.3228 -0.2588
vn -0.6244 0.6518 -0.4304
vn -0.5279 0.3304 -0.7824
vn -0.0532 0.3158 -0.9473
vn 0.2631 0.6300 -0.7306
vn 0.5958 0.2988 -0.7455
vn 0.8947 0.3038 -0.3274
vn 0.7918 0.6108 0.0026
vn 0.8940 0.3078 0.3256
vn 0.5936 0.3050 0.7447
vn 0.3001 0.6121 0.7316
vn -0.0281 0.3054 0.9518
vn 0.0000 -1.0000 -0.0000
usemtl Propane_LOD0SG
s 1
f 1/1/1 2/2/2 3/3/2 4/4/1
f 5/5/3 1/1/1 4/4/1 6/6/3
f 7/7/4 5/5/3 6/6/3 8/8/4
f 9/9/5 7/7/4 8/8/4 10/10/5
f 11/11/6 9/9/5 10/10/5 12/12/6
f 13/13/7 11/11/6 12/12/6 14/14/7
f 15/15/8 13/13/7 14/14/7 16/16/8
f 17/17/9 15/18/8 16/19/8 18/20/9
f 19/21/10 17/17/9 18/20/9 20/22/10
f 2/2/2 19/21/10 20/22/10 3/3/2
f 21/23/11 22/24/12 23/25/13 24/26/14
f 25/27/15 21/23/11 24/26/14 26/28/16
f 27/29/17 25/27/15 26/28/16 28/30/18
f 29/31/19 27/29/17 28/30/18 30/32/20
f 22/24/12 29/33/19 30/34/20 23/25/13
f 25/35/21 27/36/21 29/37/21 22/38/21 21/39/21
f 28/40/22 31/41/23 32/42/24
f 33/43/25 31/41/23 28/40/22 26/44/26
f 34/45/27 33/43/25 26/44/26
f 35/46/28 34/45/27 26/44/26 24/47/29
f 36/48/30 35/46/28 24/47/29
f 37/49/31 36/48/30 24/47/29 23/50/32
f 38/51/33 37/49/31 23/50/32
f 39/52/34 38/51/33 23/50/32 30/53/35
f 40/54/36 39/52/34 30/53/35
f 32/42/24 40/55/36 30/56/35 28/40/22
f 4/57/37 3/58/37 20/59/37 18/60/37 16/61/37 14/62/37 12/63/37 10/64/37 8/65/37 6/66/37
f 41/67/7 42/68/6 11/69/6 13/70/7
f 42/68/6 43/71/5 9/72/5 11/69/6
f 43/71/5 44/73/4 7/74/4 9/72/5
f 44/73/4 45/75/3 5/76/3 7/74/4
f 45/75/3 46/77/1 1/78/1 5/76/3
f 46/77/1 47/79/2 2/80/2 1/78/1
f 47/79/2 48/81/10 19/82/10 2/80/2
f 48/81/10 49/83/9 17/84/9 19/82/10
f 49/83/9 50/85/8 15/86/8 17/84/9
f 50/87/8 41/67/7 13/70/7 15/88/8
f 32/42/24 31/41/23 42/89/6 41/90/7
f 31/41/23 33/43/25 43/91/5 42/89/6
f 33/43/25 34/45/27 44/92/4 43/91/5
f 34/45/27 35/46/28 45/93/3 44/92/4
f 35/46/28 36/48/30 46/94/1 45/93/3
f 36/48/30 37/49/31 47/95/2 46/94/1
f 37/49/31 38/51/33 48/96/10 47/95/2
f 38/51/33 39/52/34 49/97/9 48/96/10
f 39/52/34 40/54/36 50/98/8 49/97/9
f 40/55/36 32/42/24 41/90/7 50/99/8
