# Blender v2.82 (sub 7) OBJ File: 'cube.blend'
# www.blender.org
mtllib cube.mtl
o letterCube
v -0.500000 -0.500000 0.500000
v 0.500000 -0.500000 0.500000
v 0.500000 0.500000 0.500000
v -0.500000 0.500000 0.500000
v 0.500000 0.500000 -0.500000
v -0.500000 0.500000 -0.500000
v 0.500000 -0.500000 -0.500000
v -0.500000 -0.500000 -0.500000
vt 0.331428 0.014962
vt 0.665422 0.014962
vt 0.663848 0.497259
vt 0.328803 0.496472
vt 0.007136 0.505222
vt 0.331348 0.504759
vt 0.326281 0.994643
vt 0.006152 0.992716
vt 0.666668 0.992350
vt 0.332327 0.991025
vt 0.332675 0.500610
vt 0.668854 0.495966
vt 0.666546 0.501372
vt 0.990377 0.504315
vt 0.994577 0.992126
vt 0.666023 0.986110
vt 0.991543 0.011812
vt 0.992593 0.501984
vt 0.007407 0.014962
vt 0.006375 0.501949
vn 0.0000 -0.0000 1.0000
vn 0.0000 1.0000 0.0000
vn 0.0000 0.0000 -1.0000
vn 0.0000 -1.0000 -0.0000
vn 1.0000 0.0000 0.0000
vn -1.0000 0.0000 0.0000
usemtl blinn1SG
s 1
f 1/1/1 2/2/1 3/3/1 4/4/1
f 4/5/2 3/6/2 5/7/2 6/8/2
f 6/9/3 5/10/3 7/11/3 8/12/3
f 8/13/4 7/14/4 2/15/4 1/16/4
f 2/2/5 7/17/5 5/18/5 3/3/5
f 8/19/6 1/1/6 4/4/6 6/20/6
